<?xml version="1.0" encoding="utf-8"?>
<!-- Generator: Adobe Illustrator 16.0.4, SVG Export Plug-In . SVG Version: 6.00 Build 0)  -->
<!DOCTYPE svg PUBLIC "-//W3C//DTD SVG 1.1//EN" "http://www.w3.org/Graphics/SVG/1.1/DTD/svg11.dtd">
<svg version="1.1" id="Layer_1" xmlns="http://www.w3.org/2000/svg" xmlns:xlink="http://www.w3.org/1999/xlink" x="0px" y="0px"
	 width="680px" height="3768px" viewBox="0 0 680 3768" enable-background="new 0 0 680 3768" xml:space="preserve">
<path fill="#FFFFFF" d="M268.5,3730.448h-7V2954c0-29.451,15.266-45.714,28.071-54.171c13.735-9.07,27.334-11.204,27.906-11.29
	L318,2888.5h303c35.057,0,36.459-36.056,36.501-37.591L657.5,2564c0-16.911-5.205-30.62-15.471-40.746
	c-20.258-19.982-53.638-19.745-53.981-19.755L324.5,2503.5v-642.015c-63.995-0.548-119.021-16.141-163.589-46.37
	c-36.33-24.64-65.781-58.971-87.535-102.037c-36.932-73.115-38.86-147.266-38.875-148.006L34.5,969.55l86-86V615
	c0-38.666,39.691-43.774,40.092-43.821l0.408-0.024h116.099c17.095,0,31.068-5.583,41.531-16.594
	c24.632-25.921,22.495-73.742,22.47-74.222l-0.005-0.18V66.181h7v413.898c0.154,3.208,1.998,51.511-24.372,79.285
	c-11.839,12.469-27.526,18.792-46.625,18.792H161.222c-2.978,0.405-33.722,5.359-33.722,36.845v271.45l-86,86V1565
	c0.015,0.654,1.941,73.423,38.23,145.132c21.224,41.94,49.898,75.338,85.225,99.269C209.134,1839.326,263.99,1854.5,328,1854.5h3.5
	v642H588c1.436-0.013,36.631-0.241,58.945,21.771c11.648,11.49,17.555,26.876,17.555,45.729v287c-0.012,0.529-1.569,44.5-43.5,44.5
	H318.292c-1.779,0.315-13.535,2.625-25.071,10.308c-16.404,10.926-24.721,27.14-24.721,48.192V3730.448z"/>
<circle fill="#FFFFFF" cx="344.596" cy="66.181" r="10.181"/>
<circle fill="#FFFFFF" cx="124" cy="657.5" r="10.181"/>
<circle fill="#FFFFFF" cx="38" cy="1354.5" r="10.181"/>
<circle fill="#FFFFFF" cx="328" cy="1858" r="10.181"/>
<circle fill="#FFFFFF" cx="329.5" cy="2499.5" r="10.181"/>
<circle fill="#FFFFFF" cx="265.5" cy="2958" r="10.181"/>
<circle fill="#FFFFFF" cx="265" cy="3730.448" r="10.181"/>
</svg>
